# This file uses centimeters as units for non-parametric coordinates.

mtllib Tablet.mtl
g default
v -0.059598 -1.614074 1.278192
v -0.059598 -1.662538 1.258118
v 0.059598 -1.662538 1.258118
v 0.059598 -1.614074 1.278192
v -0.059598 -1.702694 1.217962
v -0.059598 -1.722768 1.169498
v 0.059598 -1.722768 1.169498
v 0.059598 -1.702694 1.217962
v -0.059598 -0.116510 1.169498
v -0.059598 -0.136584 1.217962
v 0.059598 -0.136584 1.217962
v 0.059598 -0.116510 1.169498
v -0.059598 -0.176741 1.258118
v -0.059598 -0.225204 1.278192
v 0.059598 -0.225204 1.278192
v 0.059598 -0.176741 1.258118
v -0.059598 -0.225204 -1.278192
v -0.059598 -0.176741 -1.258118
v 0.059598 -0.176741 -1.258118
v 0.059598 -0.225204 -1.278192
v -0.059598 -0.136584 -1.217962
v -0.059598 -0.116510 -1.169498
v 0.059598 -0.116510 -1.169498
v 0.059598 -0.136584 -1.217962
v -0.059598 -1.722768 -1.169498
v -0.059598 -1.702694 -1.217962
v 0.059598 -1.702694 -1.217962
v 0.059598 -1.722768 -1.169498
v -0.059598 -1.662538 -1.258118
v -0.059598 -1.614074 -1.278192
v 0.059598 -1.614074 -1.278192
v 0.059598 -1.662538 -1.258118
v -0.073568 -1.637180 -1.215174
v -0.073568 -1.590371 -1.234563
v -0.073568 -1.675966 -1.176388
v -0.073568 -1.695355 -1.129579
v -0.073568 -1.695355 1.129579
v -0.073568 -1.675966 1.176388
v -0.073568 -1.637180 1.215174
v -0.073568 -1.590371 1.234563
v -0.073568 -0.248908 1.234563
v -0.073568 -0.202098 1.215174
v -0.073568 -0.163313 1.176388
v -0.073568 -0.143924 1.129579
v -0.073568 -0.143924 -1.129579
v -0.073568 -0.163313 -1.176388
v -0.073568 -0.202098 -1.215174
v -0.073568 -0.248908 -1.234563
v -0.073568 -0.919639 -0.000000
vt 0.955362 0.033594
vt 0.948124 0.022075
vt 0.951351 0.024202
vt 0.954025 0.028458
vt 0.785128 0.033594
vt 0.792367 0.022075
vt 0.786465 0.028458
vt 0.789139 0.024202
vt 0.955362 0.180789
vt 0.785128 0.180789
vt 0.948124 0.192308
vt 0.792367 0.192308
vt 0.954025 0.185925
vt 0.951351 0.190181
vt 0.789139 0.190181
vt 0.786465 0.185925
vt 0.963435 0.309437
vt 0.924382 0.262606
vt 0.941725 0.271258
vt 0.956152 0.288560
vt 0.051275 0.309103
vt 0.089790 0.262300
vt 0.509070 0.608381
vt 0.058318 0.288232
vt 0.072547 0.270941
vt 0.966865 0.907659
vt 0.054705 0.907325
vt 0.928350 0.954462
vt 0.093757 0.954157
vt 0.959822 0.928530
vt 0.945593 0.945822
vt 0.076416 0.945504
vt 0.061988 0.928202
vt 0.792292 0.195495
vt 0.792292 0.025261
vt 0.948049 0.025261
vt 0.948049 0.195495
vt 0.789064 0.195495
vt 0.789064 0.025261
vt 0.951276 0.195495
vt 0.951276 0.025261
vt 0.945391 0.215446
vt 0.794950 0.215446
vt 0.791833 0.215446
vt 0.786390 0.195495
vt 0.786390 0.025261
vt 0.948508 0.215446
vt 0.953950 0.025261
vt 0.953950 0.195495
vt 0.789250 0.215446
vt 0.951091 0.215446
vt 0.790977 0.197812
vt 0.790977 0.027578
vt 0.946734 0.027578
vt 0.946734 0.197812
vt 0.787749 0.197812
vt 0.787749 0.027578
vt 0.949961 0.197812
vt 0.949961 0.027578
vt 0.944076 0.217763
vt 0.793635 0.217763
vt 0.790518 0.217763
vt 0.785075 0.197812
vt 0.785075 0.027578
vt 0.947193 0.217763
vt 0.952635 0.027578
vt 0.952635 0.197812
vt 0.787935 0.217763
vt 0.949776 0.217763
vt 0.800456 0.190909
vt 0.800456 0.020675
vt 0.947650 0.020675
vt 0.947650 0.190909
vt 0.795320 0.190909
vt 0.795320 0.020675
vt 0.952787 0.190909
vt 0.952787 0.020675
vt 0.945138 0.210860
vt 0.802968 0.210860
vt 0.798007 0.210860
vt 0.950099 0.210860
vt 0.796879 0.180819
vt 0.796879 0.010586
vt 0.944074 0.010586
vt 0.944074 0.180819
vt 0.791743 0.180819
vt 0.791743 0.010586
vt 0.949210 0.180819
vt 0.949210 0.010586
vt 0.941562 0.200770
vt 0.799391 0.200770
vt 0.794431 0.200770
vt 0.946523 0.200770
vn -0.290398 -0.013541 0.956810
vn 0.000000 -0.013965 0.999902
vn 0.000000 0.013965 0.999902
vn -0.290398 0.013541 0.956810
vn -0.186981 0.982328 0.008346
vn 0.000000 0.999965 0.008408
vn 0.000000 0.999965 -0.008408
vn -0.186981 0.982328 -0.008346
vn -0.290398 0.013541 -0.956810
vn 0.000000 0.013965 -0.999902
vn 0.000000 -0.013965 -0.999902
vn -0.290398 -0.013541 -0.956810
vn -0.186981 -0.982328 -0.008346
vn 0.000000 -0.999965 -0.008408
vn 0.000000 -0.999965 0.008408
vn -0.186981 -0.982328 0.008346
vn 0.000000 -0.562113 0.827061
vn -0.340849 -0.529112 0.777086
vn -0.311844 -0.785848 0.534038
vn 0.000000 -0.827061 0.562113
vn 0.000000 0.827061 0.562113
vn -0.311844 0.785848 0.534038
vn -0.340849 0.529112 0.777086
vn 0.000000 0.562113 0.827061
vn 0.000000 0.562113 -0.827061
vn -0.340849 0.529112 -0.777086
vn -0.311844 0.785848 -0.534038
vn 0.000000 0.827061 -0.562113
vn 0.000000 -0.827061 -0.562113
vn -0.311844 -0.785848 -0.534038
vn -0.340849 -0.529112 -0.777086
vn 0.000000 -0.562113 -0.827061
vn 1.000000 -0.000000 0.000000
vn 1.000000 -0.000000 0.000000
vn 1.000000 -0.000000 0.000000
vn 1.000000 -0.000000 0.000000
vn -1.000000 0.000000 0.000000
vn -1.000000 0.000000 0.000000
vn -1.000000 0.000000 0.000000
vn -1.000000 0.000000 0.000000
vn -0.962829 -0.150026 -0.224618
vn -0.952952 -0.003730 -0.303098
vn -0.955931 -0.242730 -0.165158
vn -0.892992 -0.450059 -0.003431
vn -0.892992 -0.450059 0.003431
vn -0.955932 -0.242730 0.165158
vn -0.962829 -0.150026 0.224618
vn -0.952952 -0.003730 0.303098
vn -0.952952 0.003730 0.303098
vn -0.962829 0.150026 0.224618
vn -0.955931 0.242730 0.165158
vn -0.892992 0.450059 0.003431
vn -0.892992 0.450059 -0.003431
vn -0.955932 0.242730 -0.165158
vn -0.962829 0.150026 -0.224618
vn -0.952952 0.003730 -0.303098
vn -1.000000 0.000000 0.000000
vn -1.000000 0.000000 0.000000
vn -1.000000 0.000000 0.000000
vn -1.000000 0.000000 0.000000
vn -1.000000 -0.000000 0.000000
vn -1.000000 -0.000000 0.000000
vn -1.000000 -0.000000 0.000000
vn -1.000000 -0.000000 0.000000
vn -1.000000 -0.000000 0.000000
vn -1.000000 -0.000000 0.000000
vn -1.000000 0.000000 0.000000
vn -1.000000 -0.000000 0.000000
vn -1.000000 -0.000000 0.000000
vn 1.000000 -0.000000 0.000000
vn 1.000000 -0.000000 0.000000
vn 1.000000 0.000000 0.000000
vn 1.000000 0.000000 0.000000
vn 1.000000 0.000000 0.000000
vn 1.000000 0.000000 0.000000
vn 1.000000 -0.000000 0.000000
vn 1.000000 -0.000000 0.000000
vn 1.000000 0.000000 0.000000
vn 1.000000 0.000000 0.000000
vn 1.000000 0.000000 0.000000
vn 1.000000 0.000000 0.000000
s 1
g pCube1
usemtl initialShadingGroup
f 1/70/1 4/71/2 15/72/3 14/73/4
f 9/34/5 12/35/6 23/36/7 22/37/8
f 17/82/9 20/83/10 31/84/11 30/85/12
f 25/52/13 28/53/14 7/54/15 6/55/16
f 3/66/17 2/67/18 5/58/19 8/59/20
f 11/39/21 10/38/22 13/45/23 16/46/24
f 19/48/25 18/49/26 21/40/27 24/41/28
f 27/57/29 26/56/30 29/63/31 32/64/32
s 5
f 31/1/33 28/2/34 27/3/35 32/4/36
s 6
f 48/17/37 45/18/38 46/19/39 47/20/40
s 1
f 1/70/1 2/74/18 3/75/17 4/71/2
f 5/58/19 6/55/16 7/54/15 8/59/20
f 9/34/5 10/38/22 11/39/21 12/35/6
f 13/76/23 14/73/4 15/72/3 16/77/24
f 17/82/9 18/86/26 19/87/25 20/83/10
f 21/40/27 22/37/8 23/36/7 24/41/28
f 25/52/13 26/56/30 27/57/29 28/53/14
f 29/88/31 30/85/12 31/84/11 32/89/32
f 30/85/12 29/88/31 33/93/41 34/90/42
f 29/63/31 26/56/30 35/62/43 33/68/41
f 26/56/30 25/52/13 36/61/44 35/62/43
f 25/52/13 6/55/16 37/60/45 36/61/44
f 6/55/16 5/58/19 38/65/46 37/60/45
f 5/58/19 2/67/18 39/69/47 38/65/46
f 2/74/18 1/70/1 40/79/48 39/80/47
f 1/70/1 14/73/4 41/78/49 40/79/48
f 14/73/4 13/76/23 42/81/50 41/78/49
f 13/45/23 10/38/22 43/44/51 42/50/50
f 10/38/22 9/34/5 44/43/52 43/44/51
f 9/34/5 22/37/8 45/42/53 44/43/52
f 22/37/8 21/40/27 46/47/54 45/42/53
f 21/40/27 18/49/26 47/51/55 46/47/54
f 18/86/26 17/82/9 48/91/56 47/92/55
f 17/82/9 30/85/12 34/90/42 48/91/56
s 6
f 44/22/57 41/21/58 42/24/59 43/25/60
f 40/27/61 37/29/62 38/32/63 39/33/64
f 48/17/37 41/21/58 44/22/57 45/18/38
f 34/26/65 36/28/66 37/29/62 40/27/61
f 49/23/67 40/27/61 41/21/58
f 34/26/65 33/30/68 35/31/69 36/28/66
s 5
f 4/5/70 7/6/71 28/2/34 31/1/33
f 15/10/72 20/9/73 23/11/74 12/12/75
f 4/5/70 3/7/76 8/8/77 7/6/71
f 15/10/72 12/12/75 11/15/78 16/16/79
f 4/5/70 31/1/33 20/9/73 15/10/72
f 23/11/74 20/9/73 19/13/80 24/14/81
s 6
f 48/17/37 49/23/67 41/21/58
f 34/26/65 49/23/67 48/17/37
f 34/26/65 40/27/61 49/23/67
